<svg xmlns="http://www.w3.org/2000/svg" viewBox="0 0 873.43 227.17" width="873.43" height="227.17" role="img" aria-label="NOVRA"><title>NOVRA</title><defs><linearGradient id="nvn-haste" gradientUnits="userSpaceOnUse" x1="4.5" y1="7.79" x2="99" y2="171.47"><stop offset="0%" stop-color="#57595d"/><stop offset="5.29%" stop-color="#595c60"/><stop offset="9.52%" stop-color="#585b5f"/><stop offset="16.4%" stop-color="#585a5e"/><stop offset="29.63%" stop-color="#5a5d61"/><stop offset="35.98%" stop-color="#606266"/><stop offset="46.03%" stop-color="#6b6e71"/><stop offset="54.5%" stop-color="#777a7e"/><stop offset="71.96%" stop-color="#9da0a3"/><stop offset="78.31%" stop-color="#afb1b4"/><stop offset="82.01%" stop-color="#b6babd"/><stop offset="84.66%" stop-color="#bec1c3"/><stop offset="90.48%" stop-color="#d3d5d7"/><stop offset="92.59%" stop-color="#d8dbdd"/><stop offset="94.18%" stop-color="#dadddf"/><stop offset="100%" stop-color="#dee0e2"/></linearGradient><linearGradient id="nvn-diagEsq" gradientUnits="userSpaceOnUse" x1="54.9" y1="52.55" x2="110.52" y2="105.8"><stop offset="0%" stop-color="#626568"/><stop offset="31.17%" stop-color="#717477"/><stop offset="44.16%" stop-color="#7b7e82"/><stop offset="58.44%" stop-color="#818588"/><stop offset="71.43%" stop-color="#898d90"/><stop offset="88.31%" stop-color="#979a9e"/><stop offset="92.21%" stop-color="#9b9fa2"/><stop offset="96.1%" stop-color="#a1a5a8"/><stop offset="100%" stop-color="#a3a7ab"/></linearGradient><linearGradient id="nvn-diagDir" gradientUnits="userSpaceOnUse" x1="92.79" y1="89.61" x2="200.7" y2="193.81"><stop offset="0%" stop-color="#c6c9cc"/><stop offset="2%" stop-color="#c4c7ca"/><stop offset="5.33%" stop-color="#bcc0c3"/><stop offset="10%" stop-color="#b8bcbf"/><stop offset="15.33%" stop-color="#aaaeb1"/><stop offset="18%" stop-color="#a4a8ab"/><stop offset="36%" stop-color="#85888c"/><stop offset="50.67%" stop-color="#737679"/><stop offset="64.67%" stop-color="#64666a"/><stop offset="78%" stop-color="#595c60"/><stop offset="80.67%" stop-color="#595b5f"/><stop offset="86.67%" stop-color="#5b5d61"/><stop offset="92%" stop-color="#56595c"/><stop offset="94%" stop-color="#57595d"/><stop offset="97.33%" stop-color="#5c5f63"/><stop offset="100%" stop-color="#5c5f64"/></linearGradient><linearGradient id="nvn-direita" gradientUnits="userSpaceOnUse" x1="31.12" y1="63.81" x2="96" y2="196.84"><stop offset="0%" stop-color="#eaecee"/><stop offset="4.05%" stop-color="#eceef0"/><stop offset="9.46%" stop-color="#eaecee"/><stop offset="16.22%" stop-color="#eceef0"/><stop offset="25%" stop-color="#e9ecee"/><stop offset="31.76%" stop-color="#e1e3e5"/><stop offset="37.84%" stop-color="#d6d9db"/><stop offset="50%" stop-color="#c4c7c9"/><stop offset="58.11%" stop-color="#b7babc"/><stop offset="67.57%" stop-color="#abaeb0"/><stop offset="77.03%" stop-color="#9b9ea1"/><stop offset="89.19%" stop-color="#8f9295"/><stop offset="95.95%" stop-color="#818487"/><stop offset="97.3%" stop-color="#808387"/><stop offset="100%" stop-color="#828588"/></linearGradient></defs><polygon fill="url(#nvn-diagEsq)" points="47.8,43.98 90.64,83.39 90.69,138.9 47.8,97.8"/><polygon fill="url(#nvn-diagDir)" points="90.04,82.84 182.8,168.18 182.8,227.17 90.09,138.32"/><polygon fill="url(#nvn-haste)" points="0,0 48.4,44.53 48.4,210.97 0,166.44"/><polygon fill="url(#nvn-direita)" points="134.4,3.99 182.8,48.52 182.8,166.43 134.4,121.9"/><g transform="translate(247.62 69.13) scale(1.3699540000000001)"><path fill="#f5f5f7" fill-rule="evenodd" d="M0,0 60.68,45.8 60.68,0 69.88,0 69.88,64.9 9.2,19.1 9.2,64.9 0,64.9ZM100.72,32.45A37.75,34.76 0 1 1 176.22,32.45A37.75,34.76 0 1 1 100.72,32.45ZM109.93,32.45A28.54,25.74 0 1 0 167.01,32.45A28.54,25.74 0 1 0 109.93,32.45ZM193.93,0 204.58,0 230.12,45.94 255.66,0 266.31,0 230.12,65.1ZM293.25,0 333.49,0A21.09,21.09 0 0 1 336.78,41.92L357.42,64.9 345.57,64.9 325.17,42.18 302.45,42.18 302.45,64.9 293.25,64.9 293.25,33.39 333.49,33.39A11.89,12.3 0 0 0 345.38,21.09A11.89,12.3 0 0 0 333.49,8.79L293.25,8.79ZM381.99,64.9 419.4,-1.93 456.81,64.9 446.26,64.9 419.4,16.92 392.54,64.9Z"/></g></svg>
